<svg width="71" height="71" viewBox="0 0 71 71" fill="none" xmlns="http://www.w3.org/2000/svg">
<g clip-path="url(#clip0)" filter="url(#filter0_d)">
<path d="M53.2128 29.4318C53.2128 29.3198 53.2185 12.7959 53.2185 12.7959L28.6091 0.492188L3.99977 12.7969V29.0963C3.99016 39.3034 9.09179 48.8376 17.5892 54.4929L28.6091 61.8363L37.0984 56.1815C41.6867 62.0589 49.6127 64.1877 56.5283 61.4004C63.4444 58.6131 67.6789 51.5836 66.9099 44.1671C66.1404 36.7502 60.5533 30.7396 53.2128 29.4308V29.4318ZM28.6091 59.4739L18.6818 52.8568C10.7313 47.5663 5.95843 38.6459 5.96852 29.0963V14.0134L28.6091 2.69309L51.2498 14.0134V29.2054C50.9229 29.1857 50.599 29.1554 50.2654 29.1554C49.9318 29.1554 49.6069 29.1857 49.281 29.2054C49.281 29.1688 49.281 15.2275 49.281 15.2275L28.6091 4.89256L7.93727 15.2285V29.0963C7.93006 37.9869 12.3737 46.2906 19.7743 51.2168L28.6091 57.1034L35.0489 52.8126C35.3243 53.4134 35.6353 53.9974 35.9799 54.5612L28.6091 59.4739ZM34.3126 50.9385L28.6091 54.7381L20.8673 49.5792C20.4852 49.324 20.1151 49.0563 19.7498 48.7818V39.9835H17.781V47.1298C16.7005 46.1282 15.7123 45.0308 14.8279 43.8518V38.1316C14.8284 36.778 15.7488 35.598 17.0615 35.2683L23.7373 33.5947C23.9516 35.7293 25.5248 37.4779 27.6248 37.9162V41.9523H29.5935V37.9162C31.6935 37.4784 33.2662 35.7293 33.4801 33.5947L37.8622 34.6954C33.867 39.089 32.5144 45.2779 34.3126 50.9376V50.9385ZM23.6873 21.2804H26.4082C27.9276 21.2785 29.4282 20.942 30.8033 20.296H31.0701L33.531 23.5769V27.6788L30.2501 30.1398H26.9682L23.6873 27.6788V21.2804ZM21.8002 19.3116C21.9997 18.0773 22.7856 17.0165 23.9088 16.4667C26.0862 15.4977 28.5394 15.3434 30.8211 16.0317L31.0475 16.3585H32.5466C33.0903 16.3585 33.531 16.7993 33.531 17.3429V20.296L32.0545 18.3273H30.3457L30.1381 18.4306C28.9792 19.0079 27.7026 19.3097 26.4082 19.3116H21.8002ZM31.5623 31.6163V33.0929C31.5623 34.7237 30.24 36.046 28.6091 36.046C26.9783 36.046 25.656 34.7237 25.656 33.0929V31.6163L26.3126 32.1085H30.9057L31.5623 31.6163ZM33.531 31.5779V30.1398L35.4998 28.6632V17.3429C35.4998 15.7115 34.1775 14.3898 32.5466 14.3898H31.892C30.4678 13.5241 26.9221 13.3491 24.4107 14.1345C21.5945 14.8262 19.6493 17.3977 19.7498 20.296V21.2804H21.7185V28.6632L23.6873 30.1398V31.5731L16.5823 33.3596C14.3924 33.9061 12.8567 35.8749 12.8591 38.1316V40.7896C10.9192 37.1977 9.9041 33.1789 9.90602 29.0963V16.445L28.6091 7.09346L47.3123 16.445V29.0963C47.3123 29.2092 47.3055 29.3217 47.3046 29.4337C44.4336 29.947 41.7482 31.2049 39.5161 33.0818L33.531 31.5779ZM50.2654 60.6554C42.1107 60.6554 35.4998 54.0445 35.4998 45.8898C35.4998 37.7345 42.1107 31.1241 50.2654 31.1241C58.4201 31.1241 65.031 37.7345 65.031 45.8898C65.0219 54.0407 58.4163 60.6458 50.2654 60.6554Z" fill="#02133C"/>
<path d="M55.1873 17.3429H66.9998V19.3116H55.1873V17.3429Z" fill="#E30B0B"/>
<path d="M55.1873 21.2804H63.0623V23.2491H55.1873V21.2804Z" fill="#E30B0B"/>
<path d="M55.1873 25.2179H59.1248V27.1866H55.1873V25.2179Z" fill="#E30B0B"/>
<circle cx="49.9375" cy="45.9375" r="17.0625" fill="#C40B0B"/>
<path d="M47.8697 46.2242L44.2024 42.9053L40.75 46.0431L47.8697 52.5L59.125 39.8875L55.6726 36.75L47.8697 46.2242Z" fill="white"/>
</g>
<defs>
<filter id="filter0_d" x="0" y="0" width="71" height="71" filterUnits="userSpaceOnUse" color-interpolation-filters="sRGB">
<feFlood flood-opacity="0" result="BackgroundImageFix"/>
<feColorMatrix in="SourceAlpha" type="matrix" values="0 0 0 0 0 0 0 0 0 0 0 0 0 0 0 0 0 0 127 0" result="hardAlpha"/>
<feOffset dy="4"/>
<feGaussianBlur stdDeviation="2"/>
<feComposite in2="hardAlpha" operator="out"/>
<feColorMatrix type="matrix" values="0 0 0 0 0 0 0 0 0 0 0 0 0 0 0 0 0 0 0.25 0"/>
<feBlend mode="normal" in2="BackgroundImageFix" result="effect1_dropShadow"/>
<feBlend mode="normal" in="SourceGraphic" in2="effect1_dropShadow" result="shape"/>
</filter>
<clipPath id="clip0">
<rect width="63" height="63" fill="white" transform="translate(4)"/>
</clipPath>
</defs>
</svg>
